# xmcd CD database file
#
# Track frame offsets:
#	150
#	8920
#	23903
#	39086
#	52786
#	67853
#	82694
#	96750
#	112164
#	125701
#	138511
#	156515
#	169862
#	181106
#	197616
#	210594
#	223127
#
# Disc length: 3112 seconds
#
# Revision: 0
# Processed by: cddbd v1.5.2PL0 Copyright (c) Steve Scherf et al.
# Submitted via: CDex 1.51
#
DISCID=e10c2611
DTITLE=Vários - Vox90, A Rádio do Rodeio
DYEAR=2010
DGENRE=Country
TTITLE0=Tema Rádio do Rodeio Vox 90 (Luan Santana)
TTITLE1=Meteoro (Luan Santana)
TTITLE2=Pode chorar (Jorge and Mateus)
TTITLE3=Chora me liga (João Carreiro and Capataz)
TTITLE4=Paga pau (Fernando and Sorocaba)
TTITLE5=Faculdade da pinga (João Carreiro and Capataz)
TTITLE6=Uma canção pra você (Edson)
TTITLE7=Pensa em mim (Lucas and Luan e Jorge and Mateus)
TTITLE8=Tudo me lembro você (Bravana)
TTITLE9=Mala pronta (Hugo Pena and Gabriel)
TTITLE10=Fada (Victor and Leo)
TTITLE11=O povo fala (nóis namora (Zezé di Camargo and Luciano)
TTITLE12=Ah tá (Carlos and Jader)
TTITLE13=Você de volta (Maria Cecília and Rodolfo)
TTITLE14=Perdoa amor (Marcos and Belutti)
TTITLE15=Só saio com as top (Ricardo and João Fernando)
TTITLE16=O Trem (Copo americano)
EXTD=YEAR: 2010
EXTT0=
EXTT1=
EXTT2=
EXTT3=
EXTT4=
EXTT5=
EXTT6=
EXTT7=
EXTT8=
EXTT9=
EXTT10=
EXTT11=
EXTT12=
EXTT13=
EXTT14=
EXTT15=
EXTT16=
PLAYORDER=
